REM DIRINDEX 1\2,1\3
REM DIRNAME cjc102,folder01,folder02
TITLE ""
FILE "CD2Track08.mp3" MP3
  TRACK 01 AUDIO
    TITLE "0:"
    INDEX 01 00:00:00
  TRACK 02 AUDIO
    TITLE "2:cjc102_2535"
    INDEX 01 00:00:25
  TRACK 03 AUDIO
    TITLE "0:"
    INDEX 01 00:01:13
  TRACK 04 AUDIO
    TITLE "3:cjc102_2536"
    INDEX 01 00:01:19
  TRACK 05 AUDIO
    TITLE "0:"
    INDEX 01 00:02:51
  TRACK 06 AUDIO
    TITLE "3:cjc102_2537"
    INDEX 01 00:03:06
  TRACK 07 AUDIO
    TITLE "0:"
    INDEX 01 00:06:51
  TRACK 08 AUDIO
    TITLE "2:cjc102_2538"
    INDEX 01 00:06:55
  TRACK 09 AUDIO
    TITLE "0:"
    INDEX 01 00:07:60
  TRACK 10 AUDIO
    TITLE "3:cjc102_2539"
    INDEX 01 00:08:13
  TRACK 11 AUDIO
    TITLE "0:"
    INDEX 01 00:08:68
  TRACK 12 AUDIO
    TITLE "2:cjc102_2540"
    INDEX 01 00:08:70
  TRACK 13 AUDIO
    TITLE "0:"
    INDEX 01 00:10:02
  TRACK 14 AUDIO
    TITLE "3:cjc102_2541"
    INDEX 01 00:10:59
  TRACK 15 AUDIO
    TITLE "0:"
    INDEX 01 00:11:42
  TRACK 16 AUDIO
    TITLE "2:cjc102_2542"
    INDEX 01 00:11:58
  TRACK 17 AUDIO
    TITLE "0:"
    INDEX 01 00:13:00
  TRACK 18 AUDIO
    TITLE "3:cjc102_2543"
    INDEX 01 00:14:09
  TRACK 19 AUDIO
    TITLE "0:"
    INDEX 01 00:14:72
  TRACK 20 AUDIO
    TITLE "2:cjc102_2544"
    INDEX 01 00:15:07
  TRACK 21 AUDIO
    TITLE "0:"
    INDEX 01 00:16:08
  TRACK 22 AUDIO
    TITLE "3:cjc102_2545"
    INDEX 01 00:17:10
  TRACK 23 AUDIO
    TITLE "0:"
    INDEX 01 00:18:07
  TRACK 24 AUDIO
    TITLE "2:cjc102_2546"
    INDEX 01 00:18:19
  TRACK 25 AUDIO
    TITLE "0:"
    INDEX 01 00:19:30
  TRACK 26 AUDIO
    TITLE "3:cjc102_2547"
    INDEX 01 00:20:32
  TRACK 27 AUDIO
    TITLE "0:"
    INDEX 01 00:21:11
  TRACK 28 AUDIO
    TITLE "2:cjc102_2548"
    INDEX 01 00:21:45
  TRACK 29 AUDIO
    TITLE "0:"
    INDEX 01 00:22:56
  TRACK 30 AUDIO
    TITLE "3:cjc102_2549"
    INDEX 01 00:23:34
  TRACK 31 AUDIO
    TITLE "0:"
    INDEX 01 00:24:31
  TRACK 32 AUDIO
    TITLE "2:cjc102_2550"
    INDEX 01 00:24:51
  TRACK 33 AUDIO
    TITLE "0:"
    INDEX 01 00:25:62
  TRACK 34 AUDIO
    TITLE "3:cjc102_2551"
    INDEX 01 00:26:46
  TRACK 35 AUDIO
    TITLE "0:"
    INDEX 01 00:27:41
  TRACK 36 AUDIO
    TITLE "2:cjc102_2552"
    INDEX 01 00:27:49
  TRACK 37 AUDIO
    TITLE "0:"
    INDEX 01 00:28:64
  TRACK 38 AUDIO
    TITLE "3:cjc102_2553"
    INDEX 01 00:29:74
  TRACK 39 AUDIO
    TITLE "0:"
    INDEX 01 00:30:69
  TRACK 40 AUDIO
    TITLE "2:cjc102_2554"
    INDEX 01 00:31:06
  TRACK 41 AUDIO
    TITLE "0:"
    INDEX 01 00:32:17
  TRACK 42 AUDIO
    TITLE "3:cjc102_2555"
    INDEX 01 00:33:11
  TRACK 43 AUDIO
    TITLE "0:"
    INDEX 01 00:34:04
  TRACK 44 AUDIO
    TITLE "2:cjc102_2556"
    INDEX 01 00:34:40
  TRACK 45 AUDIO
    TITLE "0:"
    INDEX 01 00:35:47
  TRACK 46 AUDIO
    TITLE "3:cjc102_2557"
    INDEX 01 00:36:36
  TRACK 47 AUDIO
    TITLE "0:"
    INDEX 01 00:37:30
  TRACK 48 AUDIO
    TITLE "2:cjc102_2558"
    INDEX 01 00:37:69
  TRACK 49 AUDIO
    TITLE "0:"
    INDEX 01 00:39:00
  TRACK 50 AUDIO
    TITLE "3:cjc102_2559"
    INDEX 01 00:39:37
  TRACK 51 AUDIO
    TITLE "0:"
    INDEX 01 00:40:52
  TRACK 52 AUDIO
    TITLE "2:cjc102_2560"
    INDEX 01 00:41:30
  TRACK 53 AUDIO
    TITLE "0:"
    INDEX 01 00:42:49
  TRACK 54 AUDIO
    TITLE "3:cjc102_2561"
    INDEX 01 00:43:15
  TRACK 55 AUDIO
    TITLE "0:"
    INDEX 01 00:44:28
  TRACK 56 AUDIO
    TITLE "2:cjc102_2562"
    INDEX 01 00:44:50
  TRACK 57 AUDIO
    TITLE "0:"
    INDEX 01 00:45:63
  TRACK 58 AUDIO
    TITLE "3:cjc102_2563"
    INDEX 01 00:47:07
  TRACK 59 AUDIO
    TITLE "0:"
    INDEX 01 00:48:22
  TRACK 60 AUDIO
    TITLE "2:cjc102_2564"
    INDEX 01 00:48:26
  TRACK 61 AUDIO
    TITLE "0:"
    INDEX 01 00:49:33
  TRACK 62 AUDIO
    TITLE "3:cjc102_2565"
    INDEX 01 00:50:39
  TRACK 63 AUDIO
    TITLE "0:"
    INDEX 01 00:51:48
  TRACK 64 AUDIO
    TITLE "2:cjc102_2566"
    INDEX 01 00:51:56
  TRACK 65 AUDIO
    TITLE "0:"
    INDEX 01 00:52:61
  TRACK 66 AUDIO
    TITLE "3:cjc102_2567"
    INDEX 01 00:54:19
  TRACK 67 AUDIO
    TITLE "0:"
    INDEX 01 00:55:12
  TRACK 68 AUDIO
    TITLE "2:cjc102_2568"
    INDEX 01 00:55:16
  TRACK 69 AUDIO
    TITLE "0:"
    INDEX 01 00:56:10
  TRACK 70 AUDIO
    TITLE "3:cjc102_2569"
    INDEX 01 00:57:58
  TRACK 71 AUDIO
    TITLE "0:"
    INDEX 01 00:58:64
  TRACK 72 AUDIO
    TITLE "2:cjc102_2570"
    INDEX 01 00:58:66
  TRACK 73 AUDIO
    TITLE "0:"
    INDEX 01 01:00:00
  TRACK 74 AUDIO
    TITLE "3:cjc102_2571"
    INDEX 01 01:02:22
  TRACK 75 AUDIO
    TITLE "0:"
    INDEX 01 01:03:26
  TRACK 76 AUDIO
    TITLE "2:cjc102_2572"
    INDEX 01 01:03:27
  TRACK 77 AUDIO
    TITLE "0:"
    INDEX 01 01:04:29
  TRACK 78 AUDIO
    TITLE "2:cjc102_2573"
    INDEX 01 01:04:62
  TRACK 79 AUDIO
    TITLE "0:"
    INDEX 01 01:06:04
  TRACK 80 AUDIO
    TITLE "3:cjc102_2574"
    INDEX 01 01:07:17
  TRACK 81 AUDIO
    TITLE "0:"
    INDEX 01 01:08:25
  TRACK 82 AUDIO
    TITLE "2:cjc102_2575"
    INDEX 01 01:08:29
  TRACK 83 AUDIO
    TITLE "0:"
    INDEX 01 01:09:30
  TRACK 84 AUDIO
    TITLE "2:cjc102_2576"
    INDEX 01 01:10:08
  TRACK 85 AUDIO
    TITLE "0:"
    INDEX 01 01:11:17
  TRACK 86 AUDIO
    TITLE "3:cjc102_2577"
    INDEX 01 01:12:58
  TRACK 87 AUDIO
    TITLE "0:"
    INDEX 01 01:13:65
  TRACK 88 AUDIO
    TITLE "2:cjc102_2578"
    INDEX 01 01:14:04
  TRACK 89 AUDIO
    TITLE "0:"
    INDEX 01 01:15:11
  TRACK 90 AUDIO
    TITLE "2:cjc102_2579"
    INDEX 01 01:15:46
  TRACK 91 AUDIO
    TITLE "0:"
    INDEX 01 01:16:67
  TRACK 92 AUDIO
    TITLE "3:cjc102_2580"
    INDEX 01 01:18:09
  TRACK 93 AUDIO
    TITLE "0:"
    INDEX 01 01:19:21
  TRACK 94 AUDIO
    TITLE "2:cjc102_2581"
    INDEX 01 01:19:32
  TRACK 95 AUDIO
    TITLE "0:"
    INDEX 01 01:20:34
  TRACK 96 AUDIO
    TITLE "2:cjc102_2582"
    INDEX 01 01:21:08
  TRACK 97 AUDIO
    TITLE "0:"
    INDEX 01 01:22:15
  TRACK 98 AUDIO
    TITLE "3:cjc102_2583"
    INDEX 01 01:23:54
  TRACK 99 AUDIO
    TITLE "0:"
    INDEX 01 01:25:09
  TRACK 100 AUDIO
    TITLE "2:cjc102_2584"
    INDEX 01 01:25:23
  TRACK 101 AUDIO
    TITLE "0:"
    INDEX 01 01:28:33
  TRACK 102 AUDIO
    TITLE "3:cjc102_2585"
    INDEX 01 01:29:37
  TRACK 103 AUDIO
    TITLE "0:"
    INDEX 01 01:30:56
  TRACK 104 AUDIO
    TITLE "2:cjc102_2586"
    INDEX 01 01:31:38
  TRACK 105 AUDIO
    TITLE "0:"
    INDEX 01 01:36:50
  TRACK 106 AUDIO
    TITLE "3:cjc102_2587"
    INDEX 01 01:37:19
  TRACK 107 AUDIO
    TITLE "0:"
    INDEX 01 01:38:47
  TRACK 108 AUDIO
    TITLE "2:cjc102_2588"
    INDEX 01 01:39:15
  TRACK 109 AUDIO
    TITLE "0:"
    INDEX 01 01:40:29
  TRACK 110 AUDIO
    TITLE "3:cjc102_2589"
    INDEX 01 01:41:32
  TRACK 111 AUDIO
    TITLE "0:"
    INDEX 01 01:42:57
  TRACK 112 AUDIO
    TITLE "2:cjc102_2590"
    INDEX 01 01:42:61
  TRACK 113 AUDIO
    TITLE "0:"
    INDEX 01 01:43:72
  TRACK 114 AUDIO
    TITLE "3:cjc102_2591"
    INDEX 01 01:45:18
  TRACK 115 AUDIO
    TITLE "0:"
    INDEX 01 01:46:33
  TRACK 116 AUDIO
    TITLE "2:cjc102_2592"
    INDEX 01 01:46:39
  TRACK 117 AUDIO
    TITLE "0:"
    INDEX 01 01:47:33
  TRACK 118 AUDIO
    TITLE "3:cjc102_2593"
    INDEX 01 01:48:38
  TRACK 119 AUDIO
    TITLE "0:"
    INDEX 01 01:49:59
  TRACK 120 AUDIO
    TITLE "2:cjc102_2594"
    INDEX 01 01:49:61
  TRACK 121 AUDIO
    TITLE "0:"
    INDEX 01 01:50:62
